<?xml version="1.0" encoding="UTF-8" standalone="no"?>
<!-- Created with Inkscape (http://www.inkscape.org/) -->

<svg
   width="203.77826"
   height="295.52716"
   viewBox="0 0 53.91633 78.191561"
   version="1.1"
   id="svg1"
   inkscape:export-filename="img-step-one.svg"
   inkscape:export-xdpi="96"
   inkscape:export-ydpi="96"
   xmlns:inkscape="http://www.inkscape.org/namespaces/inkscape"
   xmlns:sodipodi="http://sodipodi.sourceforge.net/DTD/sodipodi-0.dtd"
   xmlns="http://www.w3.org/2000/svg"
   xmlns:svg="http://www.w3.org/2000/svg">
  <sodipodi:namedview
     id="namedview1"
     pagecolor="#ffffff"
     bordercolor="#000000"
     borderopacity="0.25"
     inkscape:showpageshadow="2"
     inkscape:pageopacity="0.0"
     inkscape:pagecheckerboard="0"
     inkscape:deskcolor="#d1d1d1"
     inkscape:document-units="mm" />
  <defs
     id="defs1" />
  <g
     inkscape:label="Camada 1"
     inkscape:groupmode="layer"
     id="layer1"
     transform="translate(-13.968575,-0.84434897)">
    <g
       id="g2"
       transform="matrix(3.2868869,0,0,3.2868869,-252.79035,-610.62426)">
      <path
         id="path298"
         style="fill:#368cae;fill-opacity:1;fill-rule:nonzero;stroke:none;stroke-width:0.0352778"
         d="m 95.340203,194.56969 c 0,0.15696 -0.128764,0.28611 -0.28575,0.28611 H 84.196305 c -0.158044,0 -0.286102,-0.12915 -0.286102,-0.28611 v -0.0949 c 0,-0.15723 0.128058,-0.2861 0.286102,-0.2861 h 10.858148 c 0.156986,0 0.28575,0.12887 0.28575,0.2861 v 0.0949" />
      <path
         id="path300"
         style="fill:#368cae;fill-opacity:1;fill-rule:nonzero;stroke:none;stroke-width:0.0352778"
         d="m 89.006078,204.47573 h 1.241062 v -2.44119 h -1.241062 z" />
      <path
         id="path302"
         style="fill:#2e779a;fill-opacity:1;fill-rule:nonzero;stroke:none;stroke-width:0.0352778"
         d="m 90.243975,202.16599 h -1.237897 l -4.572,-7.40583 h 10.381898 l -4.572001,7.40583" />
      <path
         id="path304"
         style="fill:#cfeaec;fill-opacity:1;fill-rule:nonzero;stroke:none;stroke-width:0.0352778"
         d="m 91.347464,200.37882 3.409598,-5.52302 h 0.297391 c 0.156986,0 0.28575,-0.12915 0.28575,-0.28611 v -0.0949 0 0.0949 c 0,0.15696 -0.128764,0.28611 -0.28575,0.28611 h -0.297039 l -3.40995,5.52302" />
      <path
         id="path306"
         style="fill:#3a98b7;fill-opacity:1;fill-rule:nonzero;stroke:none;stroke-width:0.0352778"
         d="m 95.054453,194.8558 h -0.297391 l 0.05891,-0.0956 H 89.62485 v -0.5715 h 5.429603 c 0.156986,0 0.28575,0.12887 0.28575,0.2861 v 0.0949 c 0,0.15696 -0.128764,0.28611 -0.28575,0.28611" />
      <path
         id="path308"
         style="fill:#3a98b7;fill-opacity:1;fill-rule:nonzero;stroke:none;stroke-width:0.0352778"
         d="m 90.24715,204.47573 h -0.6223 v -2.30974 h 0.619125 l 0.0032,-0.005 v 2.31454" />
      <path
         id="path310"
         style="fill:#3385a6;fill-opacity:1;fill-rule:nonzero;stroke:none;stroke-width:0.0352778"
         d="M 90.243975,202.16599 H 89.62485 v -7.40583 h 5.191126 l -0.05891,0.0956 -3.409598,5.52302 -1.100314,1.78237 v 0 l -0.0032,0.005" />
      <path
         id="path312"
         style="fill:#b2b2b1;fill-opacity:1;fill-rule:nonzero;stroke:none;stroke-width:0.0352778"
         d="m 81.899722,187.04699 c 0,-0.60565 -0.06844,-0.83425 -0.246945,-0.83425 -0.178858,0 -0.245886,0.22998 -0.245886,0.83425 0,0.62234 0.07232,0.85411 0.24765,0.85411 0.17392,0 0.245181,-0.22779 0.245181,-0.85411 z m -0.706261,0 c 0,-0.83993 0.210961,-1.01424 0.459316,-1.01424 0.249767,0 0.461434,0.17004 0.461434,1.01424 0,0.82201 -0.211667,1.03269 -0.461434,1.03269 -0.248355,0 -0.459316,-0.21068 -0.459316,-1.03269" />
      <path
         id="path314"
         style="fill:#b2b2b1;fill-opacity:1;fill-rule:nonzero;stroke:none;stroke-width:0.0352778"
         d="m 82.530489,187.9664 v -1.60443 l -0.02011,-0.0378 -0.12065,0.031 c -0.02011,0.003 -0.03104,-0.008 -0.03104,-0.0529 v -0.10749 c 0,-0.0368 0.01376,-0.0477 0.0321,-0.052 l 0.318205,-0.0835 0.01834,-0.003 c 0.01764,0 0.02752,0.0128 0.02752,0.059 v 1.85138 c 0,0.0604 -0.01376,0.0935 -0.03351,0.0935 h -0.15875 c -0.01976,0 -0.0321,-0.0331 -0.0321,-0.0935" />
      <path
         id="path316"
         style="fill:#b2b2b1;fill-opacity:1;fill-rule:nonzero;stroke:none;stroke-width:0.0352778"
         d="m 83.226166,187.9664 v -1.60443 l -0.0194,-0.0378 -0.121356,0.031 c -0.0194,0.003 -0.03104,-0.008 -0.03104,-0.0529 v -0.10749 c 0,-0.0368 0.01411,-0.0477 0.03245,-0.052 l 0.317853,-0.0835 0.01834,-0.003 c 0.01834,0 0.02787,0.0128 0.02787,0.059 v 1.85138 c 0,0.0604 -0.01411,0.0935 -0.03316,0.0935 h -0.159456 c -0.01905,0 -0.0321,-0.0331 -0.0321,-0.0935" />
      <path
         id="path318"
         style="fill:#b2b2b1;fill-opacity:1;fill-rule:nonzero;stroke:none;stroke-width:0.0352778"
         d="m 84.491933,187.04699 c 0,-0.60565 -0.06844,-0.83425 -0.246944,-0.83425 -0.178506,0 -0.245534,0.22998 -0.245534,0.83425 0,0.62234 0.07267,0.85411 0.246945,0.85411 0.174272,0 0.245533,-0.22779 0.245533,-0.85411 z m -0.705555,0 c 0,-0.83993 0.210255,-1.01424 0.458611,-1.01424 0.249766,0 0.462139,0.17004 0.462139,1.01424 0,0.82201 -0.212373,1.03269 -0.462139,1.03269 -0.248356,0 -0.458611,-0.21068 -0.458611,-1.03269" />
      <path
         id="path320"
         style="fill:#b2b2b1;fill-opacity:1;fill-rule:nonzero;stroke:none;stroke-width:0.0352778"
         d="m 85.1227,187.9664 v -1.60443 l -0.0194,-0.0378 -0.121708,0.031 c -0.0194,0.003 -0.03069,-0.008 -0.03069,-0.0529 v -0.10749 c 0,-0.0368 0.01411,-0.0477 0.0321,-0.052 l 0.317853,-0.0835 0.01834,-0.003 c 0.0187,0 0.02822,0.0128 0.02822,0.059 v 1.85138 c 0,0.0604 -0.01411,0.0935 -0.03351,0.0935 H 85.15445 c -0.01905,0 -0.03175,-0.0331 -0.03175,-0.0935" />
      <path
         id="path322"
         style="fill:#b2b2b1;fill-opacity:1;fill-rule:nonzero;stroke:none;stroke-width:0.0352778"
         d="m 86.388114,187.04699 c 0,-0.60565 -0.06844,-0.83425 -0.246945,-0.83425 -0.178505,0 -0.24518,0.22998 -0.24518,0.83425 0,0.62234 0.07232,0.85411 0.246592,0.85411 0.174272,0 0.245533,-0.22779 0.245533,-0.85411 z m -0.705556,0 c 0,-0.83993 0.210609,-1.01424 0.458611,-1.01424 0.25012,0 0.462139,0.17004 0.462139,1.01424 0,0.82201 -0.212019,1.03269 -0.462139,1.03269 -0.248002,0 -0.458611,-0.21068 -0.458611,-1.03269" />
      <path
         id="path324"
         style="fill:#b2b2b1;fill-opacity:1;fill-rule:nonzero;stroke:none;stroke-width:0.0352778"
         d="m 87.018881,187.9664 v -1.60443 l -0.01905,-0.0378 -0.122062,0.031 c -0.0194,0.003 -0.03034,-0.008 -0.03034,-0.0529 v -0.10749 c 0,-0.0368 0.01376,-0.0477 0.03175,-0.052 l 0.318205,-0.0835 0.01799,-0.003 c 0.0187,0 0.02822,0.0128 0.02822,0.059 v 1.85138 c 0,0.0604 -0.01411,0.0935 -0.03351,0.0935 h -0.159103 c -0.0194,0 -0.0321,-0.0331 -0.0321,-0.0935" />
      <path
         id="path326"
         style="fill:#b2b2b1;fill-opacity:1;fill-rule:nonzero;stroke:none;stroke-width:0.0352778"
         d="m 88.284295,187.04699 c 0,-0.60565 -0.06809,-0.83425 -0.246945,-0.83425 -0.178505,0 -0.24518,0.22998 -0.24518,0.83425 0,0.62234 0.07232,0.85411 0.246591,0.85411 0.174625,0 0.245534,-0.22779 0.245534,-0.85411 z m -0.705556,0 c 0,-0.83993 0.210608,-1.01424 0.458611,-1.01424 0.25012,0 0.462492,0.17004 0.462492,1.01424 0,0.82201 -0.212372,1.03269 -0.462492,1.03269 -0.248003,0 -0.458611,-0.21068 -0.458611,-1.03269" />
      <path
         id="path328"
         style="fill:#b2b2b1;fill-opacity:1;fill-rule:nonzero;stroke:none;stroke-width:0.0352778"
         d="m 89.484445,187.04699 c 0,-0.60565 -0.06844,-0.83425 -0.246592,-0.83425 -0.178858,0 -0.245886,0.22998 -0.245886,0.83425 0,0.62234 0.07267,0.85411 0.246944,0.85411 0.174625,0 0.245534,-0.22779 0.245534,-0.85411 z m -0.705556,0 c 0,-0.83993 0.210256,-1.01424 0.458964,-1.01424 0.249767,0 0.461433,0.17004 0.461433,1.01424 0,0.82201 -0.211666,1.03269 -0.461433,1.03269 -0.248708,0 -0.458964,-0.21068 -0.458964,-1.03269" />
      <path
         id="path330"
         style="fill:#b2b2b1;fill-opacity:1;fill-rule:nonzero;stroke:none;stroke-width:0.0352778"
         d="m 81.330691,190.63333 v -1.60429 l -0.02011,-0.0375 -0.121356,0.0307 c -0.0194,0.002 -0.03069,-0.009 -0.03069,-0.0533 v -0.10745 c 0,-0.0361 0.01411,-0.047 0.03245,-0.0515 l 0.317853,-0.0837 0.01799,-0.003 c 0.01799,0 0.02822,0.0123 0.02822,0.0586 v 1.85124 c 0,0.0601 -0.01411,0.0938 -0.03351,0.0938 h -0.159455 c -0.01905,0 -0.0314,-0.0338 -0.0314,-0.0938" />
      <path
         id="path332"
         style="fill:#b2b2b1;fill-opacity:1;fill-rule:nonzero;stroke:none;stroke-width:0.0352778"
         d="m 82.595753,189.71406 c 0,-0.6054 -0.06844,-0.83428 -0.246945,-0.83428 -0.178858,0 -0.245886,0.23025 -0.245886,0.83428 0,0.6223 0.07267,0.85369 0.246944,0.85369 0.174625,0 0.245887,-0.22712 0.245887,-0.85369 z m -0.705556,0 c 0,-0.83965 0.209903,-1.01452 0.458611,-1.01452 0.249767,0 0.461786,0.17075 0.461786,1.01452 0,0.82197 -0.212019,1.03226 -0.461786,1.03226 -0.248708,0 -0.458611,-0.21029 -0.458611,-1.03226" />
      <path
         id="path334"
         style="fill:#b2b2b1;fill-opacity:1;fill-rule:nonzero;stroke:none;stroke-width:0.0352778"
         d="m 83.79555,189.71406 c 0,-0.6054 -0.06809,-0.83428 -0.246945,-0.83428 -0.178505,0 -0.245533,0.23025 -0.245533,0.83428 0,0.6223 0.07232,0.85369 0.246944,0.85369 0.174273,0 0.245534,-0.22712 0.245534,-0.85369 z m -0.705909,0 c 0,-0.83965 0.210962,-1.01452 0.458964,-1.01452 0.25012,0 0.462139,0.17075 0.462139,1.01452 0,0.82197 -0.212019,1.03226 -0.462139,1.03226 -0.248002,0 -0.458964,-0.21029 -0.458964,-1.03226" />
      <path
         id="path336"
         style="fill:#b2b2b1;fill-opacity:1;fill-rule:nonzero;stroke:none;stroke-width:0.0352778"
         d="m 84.426317,190.63333 v -1.60429 l -0.0194,-0.0375 -0.121356,0.0307 c -0.01975,0.002 -0.03069,-0.009 -0.03069,-0.0533 v -0.10745 c 0,-0.0361 0.01376,-0.047 0.0314,-0.0515 l 0.318558,-0.0837 0.01834,-0.003 c 0.01799,0 0.02787,0.0123 0.02787,0.0586 v 1.85124 c 0,0.0601 -0.01376,0.0938 -0.03387,0.0938 h -0.15875 c -0.01976,0 -0.0321,-0.0338 -0.0321,-0.0938" />
      <path
         id="path338"
         style="fill:#b2b2b1;fill-opacity:1;fill-rule:nonzero;stroke:none;stroke-width:0.0352778"
         d="m 85.691731,189.71406 c 0,-0.6054 -0.06809,-0.83428 -0.246592,-0.83428 -0.178859,0 -0.245886,0.23025 -0.245886,0.83428 0,0.6223 0.07232,0.85369 0.246944,0.85369 0.174625,0 0.245534,-0.22712 0.245534,-0.85369 z m -0.705556,0 c 0,-0.83965 0.210608,-1.01452 0.458964,-1.01452 0.249767,0 0.461786,0.17075 0.461786,1.01452 0,0.82197 -0.212019,1.03226 -0.461786,1.03226 -0.248356,0 -0.458964,-0.21029 -0.458964,-1.03226" />
      <path
         id="path340"
         style="fill:#b2b2b1;fill-opacity:1;fill-rule:nonzero;stroke:none;stroke-width:0.0352778"
         d="m 86.322497,190.63333 v -1.60429 l -0.0194,-0.0375 -0.121355,0.0307 c -0.01976,0.002 -0.03069,-0.009 -0.03069,-0.0533 v -0.10745 c 0,-0.0361 0.01376,-0.047 0.03175,-0.0515 l 0.318206,-0.0837 0.0187,-0.003 c 0.01764,0 0.02752,0.0123 0.02752,0.0586 v 1.85124 c 0,0.0601 -0.01376,0.0938 -0.03351,0.0938 h -0.15875 c -0.02011,0 -0.03246,-0.0338 -0.03246,-0.0938" />
      <path
         id="path342"
         style="fill:#b2b2b1;fill-opacity:1;fill-rule:nonzero;stroke:none;stroke-width:0.0352778"
         d="m 87.588264,189.71406 c 0,-0.6054 -0.06844,-0.83428 -0.246944,-0.83428 -0.178506,0 -0.245887,0.23025 -0.245887,0.83428 0,0.6223 0.07267,0.85369 0.247298,0.85369 0.174625,0 0.245533,-0.22712 0.245533,-0.85369 z m -0.705908,0 c 0,-0.83965 0.210608,-1.01452 0.458964,-1.01452 0.249766,0 0.461786,0.17075 0.461786,1.01452 0,0.82197 -0.21202,1.03226 -0.461786,1.03226 -0.248356,0 -0.458964,-0.21029 -0.458964,-1.03226" />
      <path
         id="path344"
         style="fill:#b2b2b1;fill-opacity:1;fill-rule:nonzero;stroke:none;stroke-width:0.0352778"
         d="m 88.218678,190.63333 v -1.60429 l -0.0194,-0.0375 -0.121003,0.0307 c -0.01976,0.002 -0.03104,-0.009 -0.03104,-0.0533 v -0.10745 c 0,-0.0361 0.01411,-0.047 0.03175,-0.0515 l 0.318205,-0.0837 0.0187,-0.003 c 0.01799,0 0.02752,0.0123 0.02752,0.0586 v 1.85124 c 0,0.0601 -0.01376,0.0938 -0.03316,0.0938 h -0.159103 c -0.01975,0 -0.03245,-0.0338 -0.03245,-0.0938" />
      <path
         id="path346"
         style="fill:#b2b2b1;fill-opacity:1;fill-rule:nonzero;stroke:none;stroke-width:0.0352778"
         d="m 89.484445,189.71406 c 0,-0.6054 -0.06844,-0.83428 -0.246592,-0.83428 -0.178858,0 -0.245886,0.23025 -0.245886,0.83428 0,0.6223 0.07267,0.85369 0.246944,0.85369 0.174625,0 0.245534,-0.22712 0.245534,-0.85369 z m -0.705556,0 c 0,-0.83965 0.210256,-1.01452 0.458964,-1.01452 0.249767,0 0.461433,0.17075 0.461433,1.01452 0,0.82197 -0.211666,1.03226 -0.461433,1.03226 -0.248708,0 -0.458964,-0.21029 -0.458964,-1.03226" />
      <path
         id="path348"
         style="fill:#b2b2b1;fill-opacity:1;fill-rule:nonzero;stroke:none;stroke-width:0.0352778"
         d="m 81.899722,192.35397 c 0,-0.60579 -0.06844,-0.83443 -0.246945,-0.83443 -0.178858,0 -0.245886,0.23001 -0.245886,0.83443 0,0.62216 0.07232,0.85397 0.24765,0.85397 0.17392,0 0.245181,-0.22779 0.245181,-0.85397 z m -0.706261,0 c 0,-0.84007 0.210961,-1.01424 0.459316,-1.01424 0.249767,0 0.461434,0.17004 0.461434,1.01424 0,0.82183 -0.211667,1.03254 -0.461434,1.03254 -0.248355,0 -0.459316,-0.21071 -0.459316,-1.03254" />
      <path
         id="path350"
         style="fill:#b2b2b1;fill-opacity:1;fill-rule:nonzero;stroke:none;stroke-width:0.0352778"
         d="m 82.530489,193.27324 v -1.60444 l -0.02011,-0.0378 -0.12065,0.031 c -0.02011,0.003 -0.03104,-0.009 -0.03104,-0.0529 v -0.10749 c 0,-0.0368 0.01376,-0.0477 0.0321,-0.0519 l 0.318205,-0.0835 0.01834,-0.003 c 0.01764,0 0.02752,0.0127 0.02752,0.0589 v 1.85138 c 0,0.0604 -0.01376,0.0935 -0.03351,0.0935 h -0.15875 c -0.01976,0 -0.0321,-0.0331 -0.0321,-0.0935" />
      <path
         id="path352"
         style="fill:#b2b2b1;fill-opacity:1;fill-rule:nonzero;stroke:none;stroke-width:0.0352778"
         d="m 83.226166,193.27324 v -1.60444 l -0.0194,-0.0378 -0.121356,0.031 c -0.0194,0.003 -0.03104,-0.009 -0.03104,-0.0529 v -0.10749 c 0,-0.0368 0.01411,-0.0477 0.03245,-0.0519 l 0.317853,-0.0835 0.01834,-0.003 c 0.01834,0 0.02787,0.0127 0.02787,0.0589 v 1.85138 c 0,0.0604 -0.01411,0.0935 -0.03316,0.0935 h -0.159456 c -0.01905,0 -0.0321,-0.0331 -0.0321,-0.0935" />
      <path
         id="path354"
         style="fill:#b2b2b1;fill-opacity:1;fill-rule:nonzero;stroke:none;stroke-width:0.0352778"
         d="m 84.491933,192.35397 c 0,-0.60579 -0.06844,-0.83443 -0.246944,-0.83443 -0.178506,0 -0.245534,0.23001 -0.245534,0.83443 0,0.62216 0.07267,0.85397 0.246945,0.85397 0.174272,0 0.245533,-0.22779 0.245533,-0.85397 z m -0.705555,0 c 0,-0.84007 0.210255,-1.01424 0.458611,-1.01424 0.249766,0 0.462139,0.17004 0.462139,1.01424 0,0.82183 -0.212373,1.03254 -0.462139,1.03254 -0.248356,0 -0.458611,-0.21071 -0.458611,-1.03254" />
      <path
         id="path356"
         style="fill:#b2b2b1;fill-opacity:1;fill-rule:nonzero;stroke:none;stroke-width:0.0352778"
         d="m 85.1227,193.27324 v -1.60444 l -0.0194,-0.0378 -0.121708,0.031 c -0.0194,0.003 -0.03069,-0.009 -0.03069,-0.0529 v -0.10749 c 0,-0.0368 0.01411,-0.0477 0.0321,-0.0519 l 0.317853,-0.0835 0.01834,-0.003 c 0.0187,0 0.02822,0.0127 0.02822,0.0589 v 1.85138 c 0,0.0604 -0.01411,0.0935 -0.03351,0.0935 H 85.15445 c -0.01905,0 -0.03175,-0.0331 -0.03175,-0.0935" />
      <path
         id="path358"
         style="fill:#b2b2b1;fill-opacity:1;fill-rule:nonzero;stroke:none;stroke-width:0.0352778"
         d="m 86.388114,192.35397 c 0,-0.60579 -0.06844,-0.83443 -0.246945,-0.83443 -0.178505,0 -0.24518,0.23001 -0.24518,0.83443 0,0.62216 0.07232,0.85397 0.246592,0.85397 0.174272,0 0.245533,-0.22779 0.245533,-0.85397 z m -0.705556,0 c 0,-0.84007 0.210609,-1.01424 0.458611,-1.01424 0.25012,0 0.462139,0.17004 0.462139,1.01424 0,0.82183 -0.212019,1.03254 -0.462139,1.03254 -0.248002,0 -0.458611,-0.21071 -0.458611,-1.03254" />
      <path
         id="path360"
         style="fill:#b2b2b1;fill-opacity:1;fill-rule:nonzero;stroke:none;stroke-width:0.0352778"
         d="m 87.018881,193.27324 v -1.60444 l -0.01905,-0.0378 -0.122062,0.031 c -0.0194,0.003 -0.03034,-0.009 -0.03034,-0.0529 v -0.10749 c 0,-0.0368 0.01376,-0.0477 0.03175,-0.0519 l 0.318205,-0.0835 0.01799,-0.003 c 0.0187,0 0.02822,0.0127 0.02822,0.0589 v 1.85138 c 0,0.0604 -0.01411,0.0935 -0.03351,0.0935 h -0.159103 c -0.0194,0 -0.0321,-0.0331 -0.0321,-0.0935" />
      <path
         id="path362"
         style="fill:#b2b2b1;fill-opacity:1;fill-rule:nonzero;stroke:none;stroke-width:0.0352778"
         d="m 88.284295,192.35397 c 0,-0.60579 -0.06809,-0.83443 -0.246945,-0.83443 -0.178505,0 -0.24518,0.23001 -0.24518,0.83443 0,0.62216 0.07232,0.85397 0.246591,0.85397 0.174625,0 0.245534,-0.22779 0.245534,-0.85397 z m -0.705556,0 c 0,-0.84007 0.210608,-1.01424 0.458611,-1.01424 0.25012,0 0.462492,0.17004 0.462492,1.01424 0,0.82183 -0.212372,1.03254 -0.462492,1.03254 -0.248003,0 -0.458611,-0.21071 -0.458611,-1.03254" />
      <path
         id="path364"
         style="fill:#b2b2b1;fill-opacity:1;fill-rule:nonzero;stroke:none;stroke-width:0.0352778"
         d="m 89.484445,192.35397 c 0,-0.60579 -0.06844,-0.83443 -0.246592,-0.83443 -0.178858,0 -0.245886,0.23001 -0.245886,0.83443 0,0.62216 0.07267,0.85397 0.246944,0.85397 0.174625,0 0.245534,-0.22779 0.245534,-0.85397 z m -0.705556,0 c 0,-0.84007 0.210256,-1.01424 0.458964,-1.01424 0.249767,0 0.461433,0.17004 0.461433,1.01424 0,0.82183 -0.211666,1.03254 -0.461433,1.03254 -0.248708,0 -0.458964,-0.21071 -0.458964,-1.03254" />
      <path
         id="path366"
         style="fill:#f1511b;fill-opacity:1;fill-rule:nonzero;stroke:none;stroke-width:0.0352778"
         d="m 91.8664,193.36669 h -1.048102 v -6.05995 H 91.8664 v 6.05995" />
      <path
         id="path368"
         style="fill:#fbc508;fill-opacity:1;fill-rule:nonzero;stroke:none;stroke-width:0.0352778"
         d="m 93.290564,193.36669 h -1.048103 v -5.41722 h 1.048103 v 5.41722" />
      <path
         id="path370"
         style="fill:#3da3b6;fill-opacity:1;fill-rule:nonzero;stroke:none;stroke-width:0.0352778"
         d="m 94.714376,193.36669 h -1.048103 v -3.72636 h 1.048103 v 3.72636" />
      <path
         id="path372"
         style="fill:#88ba27;fill-opacity:1;fill-rule:nonzero;stroke:none;stroke-width:0.0352778"
         d="m 96.138187,193.36669 h -1.048103 v -4.79778 h 1.048103 v 4.79778" />
      <path
         id="path374"
         style="fill:#b2b2b1;fill-opacity:1;fill-rule:nonzero;stroke:none;stroke-width:0.0352778"
         d="m 97.561998,193.36669 h -1.047397 v -2.63952 h 1.047397 v 2.63952" />
      <path
         id="path376"
         style="fill:#fbc508;fill-opacity:1;fill-rule:nonzero;stroke:none;stroke-width:0.0352778"
         d="m 94.733073,209.50419 c 0,0.17432 -0.142875,0.3175 -0.3175,0.3175 h -9.507009 c -0.174625,0 -0.3175,-0.14318 -0.3175,-0.3175 v -4.18084 c 0,-0.17459 0.142875,-0.31708 0.3175,-0.31708 h 9.507009 c 0.174625,0 0.3175,0.14249 0.3175,0.31708 v 4.18084" />
      <path
         id="path378"
         style="fill:#ffffff;fill-opacity:1;fill-rule:nonzero;stroke:none;stroke-width:0.0352778"
         d="m 93.732948,206.20709 h -1.84397 v -0.47582 h 1.84397 v 0.47582" />
      <path
         id="path380"
         style="fill:#ffffff;fill-opacity:1;fill-rule:nonzero;stroke:none;stroke-width:0.0352778"
         d="m 91.571831,206.20709 h -1.924756 v -0.47582 h 1.924756 v 0.47582" />
      <path
         id="path382"
         style="fill:#ffffff;fill-opacity:1;fill-rule:nonzero;stroke:none;stroke-width:0.0352778"
         d="m 89.329222,206.20709 h -2.54 v -0.47582 h 2.54 v 0.47582" />
      <path
         id="path384"
         style="fill:#ffffff;fill-opacity:1;fill-rule:nonzero;stroke:none;stroke-width:0.0352778"
         d="m 86.472075,206.20709 h -0.880533 v -0.47582 h 0.880533 v 0.47582" />
      <path
         id="path386"
         style="fill:#ffffff;fill-opacity:1;fill-rule:nonzero;stroke:none;stroke-width:0.0352778"
         d="m 93.732948,207.17062 h -1.387475 v -0.47625 h 1.387475 v 0.47625" />
      <path
         id="path388"
         style="fill:#ffffff;fill-opacity:1;fill-rule:nonzero;stroke:none;stroke-width:0.0352778"
         d="m 92.028325,207.17062 h -2.182989 v -0.47625 h 2.182989 v 0.47625" />
      <path
         id="path390"
         style="fill:#ffffff;fill-opacity:1;fill-rule:nonzero;stroke:none;stroke-width:0.0352778"
         d="m 89.527836,207.17062 h -1.329619 v -0.47625 h 1.329619 v 0.47625" />
      <path
         id="path392"
         style="fill:#ffffff;fill-opacity:1;fill-rule:nonzero;stroke:none;stroke-width:0.0352778"
         d="m 87.880717,207.17062 h -2.289175 v -0.47625 h 2.289175 v 0.47625" />
      <path
         id="path394"
         style="fill:#ffffff;fill-opacity:1;fill-rule:nonzero;stroke:none;stroke-width:0.0352778"
         d="M 93.732948,208.13359 H 92.26645 v -0.47625 h 1.466498 v 0.47625" />
      <path
         id="path396"
         style="fill:#ffffff;fill-opacity:1;fill-rule:nonzero;stroke:none;stroke-width:0.0352778"
         d="m 91.948598,208.13359 h -2.202392 v -0.47625 h 2.202392 v 0.47625" />
      <path
         id="path398"
         style="fill:#ffffff;fill-opacity:1;fill-rule:nonzero;stroke:none;stroke-width:0.0352778"
         d="m 89.428706,208.13359 h -2.817989 v -0.47625 h 2.817989 v 0.47625" />
      <path
         id="path400"
         style="fill:#ffffff;fill-opacity:1;fill-rule:nonzero;stroke:none;stroke-width:0.0352778"
         d="m 86.293217,208.13359 h -0.701675 v -0.47625 h 0.701675 v 0.47625" />
      <path
         id="path402"
         style="fill:#ffffff;fill-opacity:1;fill-rule:nonzero;stroke:none;stroke-width:0.0352778"
         d="m 93.732948,209.0967 h -2.657123 v -0.47652 h 2.657123 v 0.47652" />
      <path
         id="path404"
         style="fill:#ffffff;fill-opacity:1;fill-rule:nonzero;stroke:none;stroke-width:0.0352778"
         d="m 90.757973,209.0967 h -2.143126 v -0.47652 h 2.143126 v 0.47652" />
      <path
         id="path406"
         style="fill:#ffffff;fill-opacity:1;fill-rule:nonzero;stroke:none;stroke-width:0.0352778"
         d="m 88.2977,209.0967 h -0.992364 v -0.47652 H 88.2977 v 0.47652" />
      <path
         id="path408"
         style="fill:#ffffff;fill-opacity:1;fill-rule:nonzero;stroke:none;stroke-width:0.0352778"
         d="m 86.987836,209.0967 h -1.396294 v -0.47652 h 1.396294 v 0.47652" />
    </g>
  </g>
</svg>
