<?xml version="1.0" encoding="UTF-8" standalone="no"?>
<!-- Created with Inkscape (http://www.inkscape.org/) -->

<svg
   width="512"
   height="512"
   viewBox="0 0 135.46667 135.46667"
   version="1.1"
   id="svg1"
   sodipodi:docname="logo-aedraperes-vector.svg"
   inkscape:export-filename="logo-aedraperes-md.png"
   inkscape:export-xdpi="96"
   inkscape:export-ydpi="96"
   inkscape:version="1.3.2 (091e20e, 2023-11-25, custom)"
   xmlns:inkscape="http://www.inkscape.org/namespaces/inkscape"
   xmlns:sodipodi="http://sodipodi.sourceforge.net/DTD/sodipodi-0.dtd"
   xmlns="http://www.w3.org/2000/svg"
   xmlns:svg="http://www.w3.org/2000/svg">
  <sodipodi:namedview
     id="namedview1"
     pagecolor="#ffffff"
     bordercolor="#000000"
     borderopacity="0.25"
     inkscape:showpageshadow="2"
     inkscape:pageopacity="0.0"
     inkscape:pagecheckerboard="0"
     inkscape:deskcolor="#d1d1d1"
     inkscape:document-units="mm"
     inkscape:zoom="0.92159584"
     inkscape:cx="320.09693"
     inkscape:cy="265.30068"
     inkscape:window-width="1366"
     inkscape:window-height="705"
     inkscape:window-x="1912"
     inkscape:window-y="-8"
     inkscape:window-maximized="1"
     inkscape:current-layer="layer1" />
  <defs
     id="defs1">
    <clipPath
       clipPathUnits="userSpaceOnUse"
       id="clipPath12">
      <g
         id="g12"
         transform="translate(170.533,4.5934813)">
        <path
           id="path12"
           style="mix-blend-mode:normal;fill:#ad7d2a;fill-opacity:1;stroke-width:0.418381"
           d="M 100.39225,6.9797436 V 136.52551 h 58.70616 V 6.9797436 Z m 50.04502,73.2200204 c 1.4343,0.03934 2.60632,0.387925 3.54357,1.011842 2.64892,2.634015 0.59241,6.70654 0.0821,8.019048 -5.62749,11.982096 -21.49431,23.563526 -32.32268,29.073096 l -0.20542,0.9059 c 8.38028,-0.2272 15.9684,0.11267 20.80757,2.42581 1.07533,0.62962 2.12279,1.25604 2.59013,1.80964 0.49067,0.76765 0.66443,1.3314 0.0431,2.30259 -1.10089,0.94494 -1.62559,0.85377 -2.46909,0.32864 -2.98829,-2.46415 -6.62366,-2.78574 -9.78759,-3.2474 -4.40536,-0.42077 -8.05587,-0.30416 -11.96695,-0.37186 -0.37989,2.22492 -0.88065,4.02994 -1.39669,5.8397 -0.49327,1.19368 -1.21243,1.25896 -1.93288,1.31669 -1.08704,-0.23726 -1.43179,-0.871 -1.35774,-1.72748 l 1.27561,-5.2646 -6.29159,0.49511 c -0.93731,0.014 -1.56471,-0.31407 -1.72746,-1.15237 -0.10878,-0.61685 0.0418,-1.23385 0.78049,-1.85072 l 7.48503,-3.41387 3.37279,-9.58004 2.63121,-10.652435 c -7.00793,4.958655 -13.14522,9.934475 -15.99921,14.970045 1.1267,0.53937 1.02516,1.46945 0.45402,2.54905 -1.18,1.10158 -2.22219,0.74731 -3.24957,0.24647 -1.05654,-1.34013 -0.68669,-1.86484 -0.73941,-2.63122 0.0439,-0.73949 0.61762,-1.70581 1.19126,-2.6723 5.90647,-7.7498 12.80945,-12.511597 19.69845,-17.313691 0.98512,-3.504639 2.10082,-6.846882 3.70143,-9.582213 0.72995,-0.905377 1.5819,-1.552703 2.71338,-1.563164 1.29556,0.318725 1.43279,1.075556 1.19347,2.097193 -0.19497,0.606208 -0.86015,1.100907 -1.31669,1.193453 -0.85099,1.533049 -1.51793,3.434504 -2.13827,5.428908 7.37031,-4.433194 14.09452,-8.056694 18.46394,-8.719554 1.05657,-0.207156 2.0127,-0.293717 2.87336,-0.270288 z m -1.20426,3.355503 c -1.17692,0.01576 -2.45746,0.366626 -3.76633,0.698342 -5.82576,1.67173 -11.79754,5.821962 -17.72448,9.2125 l -5.05703,20.561101 c 0.85246,-0.93909 17.54855,-8.34839 27.67642,-24.426849 1.08273,-2.050512 2.04778,-4.575004 0.86267,-5.634305 -0.61721,-0.308935 -1.28515,-0.420412 -1.99125,-0.41081 z" />
      </g>
    </clipPath>
  </defs>
  <g
     inkscape:label="Camada 1"
     inkscape:groupmode="layer"
     id="layer1">
    <g
       id="g8"
       transform="matrix(2.2635361,0,0,2.2635361,195.68076,1.1444196)">
      <path
         id="path2"
         style="mix-blend-mode:normal;fill:#ad7d2a;fill-opacity:1;stroke-width:0.138042"
         d="M -66.210317,0.6171658 V 43.35991 h 19.369698 V 0.6171658 Z m 16.512013,24.1584452 c 0.473237,0.01298 0.859935,0.127993 1.169178,0.33385 0.873988,0.869075 0.195454,2.212777 0.02706,2.64583 -1.856753,3.953412 -7.091902,7.774625 -10.664647,9.59247 l -0.06778,0.298896 c 2.765017,-0.07496 5.268665,0.03718 6.865318,0.800382 0.354797,0.207738 0.7004,0.414418 0.854593,0.597078 0.161897,0.253279 0.219226,0.439283 0.01422,0.759722 -0.363231,0.311777 -0.53635,0.281696 -0.814658,0.108432 -0.985968,-0.813031 -2.185432,-0.919136 -3.22935,-1.071457 -1.453518,-0.13883 -2.657979,-0.100357 -3.948414,-0.122692 -0.125342,0.734097 -0.290565,1.32965 -0.460827,1.926768 -0.162752,0.393849 -0.400033,0.415384 -0.637742,0.434433 -0.358662,-0.07828 -0.472409,-0.287382 -0.447975,-0.56997 l 0.420877,-1.737017 -2.075868,0.163358 c -0.309256,0.0046 -0.516264,-0.103628 -0.569963,-0.380218 -0.03589,-0.203526 0.0138,-0.407102 0.257518,-0.610631 l 2.469634,-1.126386 1.112829,-3.16087 0.868149,-3.514696 c -2.312197,1.636072 -4.337155,3.277812 -5.278811,4.939263 0.371748,0.177962 0.338245,0.484838 0.149803,0.841044 -0.389334,0.363458 -0.733198,0.246567 -1.072175,0.08132 -0.348599,-0.442166 -0.226569,-0.615291 -0.243962,-0.868152 0.01449,-0.243987 0.203778,-0.562821 0.393048,-0.881705 1.9488,-2.556999 4.226389,-4.128119 6.499368,-5.712538 0.325035,-1.156332 0.693153,-2.259082 1.221262,-3.161586 0.240842,-0.298723 0.521938,-0.512304 0.89526,-0.515755 0.427462,0.105161 0.47274,0.354872 0.39378,0.691954 -0.06433,0.200014 -0.283802,0.363237 -0.434434,0.393772 -0.280778,0.505819 -0.500831,1.133191 -0.705507,1.791231 2.431783,-1.462702 4.650387,-2.658251 6.092047,-2.876957 0.348612,-0.06835 0.66408,-0.09691 0.948048,-0.08918 z m -0.397342,1.107125 c -0.388313,0.0052 -0.810819,0.120966 -1.242671,0.230413 -1.922172,0.551576 -3.89252,1.920916 -5.848071,3.039602 l -1.668532,6.783997 c 0.281261,-0.309845 5.790023,-2.754499 9.131644,-8.059474 0.35724,-0.676553 0.675649,-1.509492 0.28463,-1.859001 -0.203641,-0.101931 -0.424025,-0.138712 -0.657,-0.135544 z" />
      <g
         id="g7"
         transform="matrix(1.5189927,0,0,1.5189927,-344.63504,26.776936)"
         style="fill:#ad7d2a;fill-opacity:1;stroke-width:0.217324;stroke-dasharray:none">
        <path
           style="font-size:5.95219px;font-family:Posterama2001W04-Thin;-inkscape-font-specification:'Posterama2001W04-Thin, Normal';stroke:#b07e3b"
           d="m 171.92665,16.305601 q -0.0179,0.04167 -0.0357,0.05357 -0.0119,0.01191 -0.0417,0.01191 h -0.0476 q -0.0298,0 -0.0357,-0.01191 -0.006,-0.01786 0.0119,-0.05357 l 1.78566,-3.999872 q 0.0417,-0.08928 0.0655,-0.119044 0.0238,-0.03571 0.0536,-0.03571 0.0298,0 0.0536,0.03571 0.0238,0.02976 0.0655,0.119044 l 1.78565,3.999872 q 0.0119,0.03571 0.0119,0.04167 0,0.02381 -0.0417,0.02381 h -0.0417 q -0.0298,0 -0.0476,-0.01191 -0.0119,-0.0119 -0.0298,-0.05357 l -1.7559,-3.952255 z m 6.39265,-0.06547 q 0.0298,0 0.0357,0.0119 0.0119,0.006 0.0119,0.03571 v 0.03571 q 0,0.02381 -0.0119,0.03571 -0.006,0.01191 -0.0357,0.01191 h -2.04755 q -0.0536,0 -0.0774,-0.02381 -0.0238,-0.02381 -0.0238,-0.07738 v -3.964158 q 0,-0.05357 0.0238,-0.07738 0.0238,-0.02381 0.0774,-0.02381 h 1.98803 q 0.0298,0 0.0357,0.0119 0.0119,0.006 0.0119,0.03571 v 0.03571 q 0,0.02381 -0.0119,0.03571 -0.006,0.0119 -0.0357,0.0119 h -1.91066 q -0.0238,0 -0.0357,0.0119 -0.0119,0.006 -0.0119,0.03571 v 1.767801 q 0,0.02381 0.0119,0.03571 0.0119,0.0119 0.0357,0.0119 h 1.79757 q 0.0298,0 0.0357,0.01191 0.0119,0.006 0.0119,0.03571 v 0.03571 q 0,0.02381 -0.0119,0.03571 -0.006,0.0119 -0.0357,0.0119 h -1.79757 q -0.0238,0 -0.0357,0.0119 -0.0119,0.006 -0.0119,0.03571 v 1.815418 q 0,0.02381 0.0119,0.03571 0.0119,0.0119 0.0357,0.0119 z m 0.94044,-3.934397 q 0,-0.05357 0.0238,-0.07738 0.0238,-0.02381 0.0774,-0.02381 h 0.99997 q 0.72616,0 1.244,0.255944 0.51784,0.249992 0.78569,0.714263 0.2738,0.464271 0.2738,1.08925 0,0.648789 -0.27975,1.124964 -0.27975,0.470223 -0.81545,0.726168 -0.52975,0.255944 -1.27972,0.255944 h -0.92854 q -0.0536,0 -0.0774,-0.02381 -0.0238,-0.02381 -0.0238,-0.07738 z m 0.17857,0.02976 q -0.0238,0 -0.0357,0.0119 -0.0119,0.006 -0.0119,0.03571 v 3.809402 q 0,0.02381 0.0119,0.03571 0.0119,0.0119 0.0357,0.0119 h 0.85116 q 0.71426,0 1.2202,-0.238087 0.50593,-0.24404 0.76188,-0.690454 0.26189,-0.446414 0.26189,-1.047586 0,-0.589266 -0.25594,-1.023776 -0.25594,-0.43451 -0.74998,-0.666645 -0.48808,-0.238088 -1.18448,-0.238088 z m 4.19034,3.987967 q 0,0.02381 -0.0119,0.03571 -0.006,0.01191 -0.0357,0.01191 h -0.0357 q -0.0238,0 -0.0357,-0.01191 -0.0119,-0.0119 -0.0119,-0.03571 v -4.017728 q 0,-0.05357 0.0238,-0.07738 0.0238,-0.02381 0.0774,-0.02381 h 0.89878 q 0.72616,0 1.10115,0.291657 0.38094,0.291657 0.38094,0.851163 0,0.458319 -0.2857,0.738072 -0.28571,0.2738 -0.76784,0.38094 l 1.30353,1.845179 q 0.0417,0.05952 -0.0238,0.05952 h -0.0476 q -0.0298,0 -0.0476,-0.006 -0.0179,-0.0119 -0.0357,-0.04166 l -1.32734,-1.886844 q -0.0179,-0.02976 -0.0179,-0.04762 0,-0.01786 0.0119,-0.02381 0.0178,-0.006 0.0357,-0.01191 0.29761,-0.03571 0.54165,-0.160709 0.24404,-0.124996 0.38689,-0.339275 0.14285,-0.214278 0.14285,-0.505936 0,-0.511888 -0.35118,-0.76188 -0.35117,-0.249992 -1.02377,-0.249992 h -0.7976 q -0.0238,0 -0.0357,0.0119 -0.0119,0.006 -0.0119,0.03571 z m 2.96419,-0.01786 q -0.0179,0.04167 -0.0357,0.05357 -0.0119,0.01191 -0.0417,0.01191 h -0.0476 q -0.0298,0 -0.0357,-0.01191 -0.006,-0.01786 0.0119,-0.05357 l 1.78566,-3.999872 q 0.0417,-0.08928 0.0655,-0.119044 0.0238,-0.03571 0.0536,-0.03571 0.0298,0 0.0536,0.03571 0.0238,0.02976 0.0655,0.119044 l 1.78566,3.999872 q 0.0119,0.03571 0.0119,0.04167 0,0.02381 -0.0417,0.02381 h -0.0417 q -0.0298,0 -0.0476,-0.01191 -0.0119,-0.0119 -0.0298,-0.05357 l -1.7559,-3.952255 z m 6.05932,-1.60114 q -0.0238,0 -0.0357,0.01191 -0.0119,0.006 -0.0119,0.03571 v 1.571378 q 0,0.02381 -0.0119,0.03571 -0.006,0.01191 -0.0357,0.01191 h -0.0357 q -0.0238,0 -0.0357,-0.01191 -0.0119,-0.0119 -0.0119,-0.03571 v -4.017728 q 0,-0.05357 0.0238,-0.07738 0.0238,-0.02381 0.0774,-0.02381 h 0.88688 q 0.73807,0 1.13687,0.309514 0.3988,0.303561 0.3988,0.928541 0,0.62498 -0.42261,0.946398 -0.41665,0.315466 -1.14877,0.315466 z m 0,-2.368971 q -0.0238,0 -0.0357,0.0119 -0.0119,0.006 -0.0119,0.03571 v 2.142789 q 0,0.02381 0.0119,0.03571 0.0119,0.0119 0.0357,0.0119 h 0.77974 q 0.6726,0 1.05354,-0.279753 0.38094,-0.285705 0.38094,-0.851163 0,-0.577362 -0.37499,-0.839259 -0.36904,-0.267848 -1.04759,-0.267848 z m 5.2677,3.904636 q 0.0298,0 0.0357,0.0119 0.0119,0.006 0.0119,0.03571 v 0.03571 q 0,0.02381 -0.0119,0.03571 -0.006,0.01191 -0.0357,0.01191 h -2.04756 q -0.0536,0 -0.0774,-0.02381 -0.0238,-0.02381 -0.0238,-0.07738 v -3.964158 q 0,-0.05357 0.0238,-0.07738 0.0238,-0.02381 0.0774,-0.02381 h 1.98803 q 0.0298,0 0.0357,0.0119 0.0119,0.006 0.0119,0.03571 v 0.03571 q 0,0.02381 -0.0119,0.03571 -0.006,0.0119 -0.0357,0.0119 h -1.91065 q -0.0238,0 -0.0357,0.0119 -0.0119,0.006 -0.0119,0.03571 v 1.767801 q 0,0.02381 0.0119,0.03571 0.0119,0.0119 0.0357,0.0119 h 1.79756 q 0.0298,0 0.0357,0.01191 0.0119,0.006 0.0119,0.03571 v 0.03571 q 0,0.02381 -0.0119,0.03571 -0.006,0.0119 -0.0357,0.0119 h -1.79756 q -0.0238,0 -0.0357,0.0119 -0.0119,0.006 -0.0119,0.03571 v 1.815418 q 0,0.02381 0.0119,0.03571 0.0119,0.0119 0.0357,0.0119 z m 1.07139,0.08333 q 0,0.02381 -0.0119,0.03571 -0.006,0.01191 -0.0357,0.01191 h -0.0357 q -0.0238,0 -0.0357,-0.01191 -0.0119,-0.0119 -0.0119,-0.03571 v -4.017728 q 0,-0.05357 0.0238,-0.07738 0.0238,-0.02381 0.0774,-0.02381 h 0.89879 q 0.72616,0 1.10115,0.291657 0.38094,0.291657 0.38094,0.851163 0,0.458319 -0.2857,0.738072 -0.28571,0.2738 -0.76784,0.38094 l 1.30353,1.845179 q 0.0417,0.05952 -0.0238,0.05952 h -0.0476 q -0.0298,0 -0.0476,-0.006 -0.0179,-0.0119 -0.0357,-0.04166 l -1.32734,-1.886844 q -0.0179,-0.02976 -0.0179,-0.04762 0,-0.01786 0.0119,-0.02381 0.0179,-0.006 0.0357,-0.01191 0.29761,-0.03571 0.54165,-0.160709 0.24404,-0.124996 0.38689,-0.339275 0.14285,-0.214278 0.14285,-0.505936 0,-0.511888 -0.35118,-0.76188 -0.35118,-0.249992 -1.02377,-0.249992 h -0.7976 q -0.0238,0 -0.0357,0.0119 -0.0119,0.006 -0.0119,0.03571 z m 5.4522,-0.08333 q 0.0298,0 0.0357,0.0119 0.0119,0.006 0.0119,0.03571 v 0.03571 q 0,0.02381 -0.0119,0.03571 -0.006,0.01191 -0.0357,0.01191 h -2.04755 q -0.0536,0 -0.0774,-0.02381 -0.0238,-0.02381 -0.0238,-0.07738 v -3.964158 q 0,-0.05357 0.0238,-0.07738 0.0238,-0.02381 0.0774,-0.02381 h 1.98803 q 0.0298,0 0.0357,0.0119 0.0119,0.006 0.0119,0.03571 v 0.03571 q 0,0.02381 -0.0119,0.03571 -0.006,0.0119 -0.0357,0.0119 h -1.91065 q -0.0238,0 -0.0357,0.0119 -0.0119,0.006 -0.0119,0.03571 v 1.767801 q 0,0.02381 0.0119,0.03571 0.0119,0.0119 0.0357,0.0119 h 1.79756 q 0.0298,0 0.0357,0.01191 0.0119,0.006 0.0119,0.03571 v 0.03571 q 0,0.02381 -0.0119,0.03571 -0.006,0.0119 -0.0357,0.0119 h -1.79756 q -0.0238,0 -0.0357,0.0119 -0.0119,0.006 -0.0119,0.03571 v 1.815418 q 0,0.02381 0.0119,0.03571 0.0119,0.0119 0.0357,0.0119 z m 1.9166,-4.089154 q 0.35118,0 0.64284,0.142853 0.29761,0.1369 0.51189,0.38094 0.006,0.006 0.0179,0.02381 0.0119,0.01191 0.0119,0.02381 0,0.01786 -0.0298,0.04762 l -0.006,0.006 q -0.0238,0.02381 -0.0417,0.02381 -0.0238,0 -0.0476,-0.02976 -0.19642,-0.232136 -0.47618,-0.357132 -0.2738,-0.130948 -0.58926,-0.130948 -0.32737,0 -0.56546,0.124996 -0.23809,0.119044 -0.36308,0.327371 -0.11905,0.202374 -0.11905,0.434509 0,0.261897 0.125,0.446415 0.12499,0.184518 0.35713,0.321418 0.23809,0.1369 0.61903,0.273801 0.39879,0.142852 0.65474,0.297609 0.25594,0.154757 0.38689,0.363084 0.13095,0.208326 0.13095,0.499984 0,0.309514 -0.16071,0.547601 -0.15476,0.238088 -0.44641,0.374988 -0.29166,0.130948 -0.6726,0.130948 -0.37499,0 -0.69641,-0.148804 -0.31546,-0.148805 -0.54165,-0.398797 -0.0298,-0.03571 -0.0357,-0.05357 -0.006,-0.02381 0.0179,-0.04762 l 0.0178,-0.01786 q 0.0238,-0.02381 0.0417,-0.02381 0.0238,0 0.0476,0.03571 0.19642,0.238088 0.49998,0.380941 0.30951,0.142852 0.65474,0.142852 0.33928,0 0.59522,-0.119044 0.2619,-0.119043 0.40475,-0.32737 0.14285,-0.208327 0.14285,-0.470223 0,-0.261896 -0.11904,-0.446414 -0.11905,-0.184518 -0.35713,-0.321419 -0.23214,-0.142852 -0.60713,-0.2738 -0.40475,-0.148805 -0.66069,-0.29761 -0.25594,-0.148805 -0.39285,-0.357131 -0.1369,-0.208327 -0.1369,-0.505936 0,-0.279753 0.1369,-0.511889 0.13691,-0.232135 0.40475,-0.369035 0.26785,-0.142853 0.64284,-0.142853 z"
           id="path3"
           aria-label="AEDRA PERES" />
        <g
           id="g6"
           transform="matrix(0.69990593,0,0,0.69990593,56.692802,2.7256357)"
           style="fill:#ad7d2a;fill-opacity:1;stroke-width:0.310505;stroke-dasharray:none">
          <path
             style="font-size:5.95219px;font-family:Posterama2001W04-Thin;-inkscape-font-specification:'Posterama2001W04-Thin, Normal';stroke:#b07e3b"
             d="m 175.5438,25.381055 q -0.0179,0.04167 -0.0357,0.05357 -0.0119,0.0119 -0.0417,0.0119 h -0.0476 q -0.0298,0 -0.0357,-0.0119 -0.006,-0.01786 0.0119,-0.05357 l 1.78566,-3.999871 q 0.0417,-0.08928 0.0655,-0.119044 0.0238,-0.03571 0.0536,-0.03571 0.0298,0 0.0536,0.03571 0.0238,0.02976 0.0655,0.119044 l 1.78566,3.999871 q 0.0119,0.03571 0.0119,0.04167 0,0.02381 -0.0417,0.02381 h -0.0417 q -0.0298,0 -0.0476,-0.0119 -0.0119,-0.0119 -0.0298,-0.05357 l -1.7559,-3.952254 z m 4.24392,-3.999871 q 0,-0.05357 0.0238,-0.07738 0.0238,-0.02381 0.0774,-0.02381 h 0.99997 q 0.72617,0 1.24401,0.255945 0.51784,0.249992 0.78569,0.714262 0.2738,0.464271 0.2738,1.089251 0,0.648789 -0.27975,1.124964 -0.27976,0.470223 -0.81545,0.726167 -0.52975,0.255944 -1.27973,0.255944 h -0.92854 q -0.0536,0 -0.0774,-0.02381 -0.0238,-0.02381 -0.0238,-0.07738 z m 0.17856,0.02976 q -0.0238,0 -0.0357,0.0119 -0.0119,0.006 -0.0119,0.03571 v 3.809402 q 0,0.02381 0.0119,0.03571 0.0119,0.0119 0.0357,0.0119 h 0.85116 q 0.71427,0 1.2202,-0.238087 0.50594,-0.24404 0.76188,-0.690454 0.2619,-0.446415 0.2619,-1.047586 0,-0.589267 -0.25594,-1.023777 -0.25595,-0.434509 -0.74998,-0.666645 -0.48808,-0.238087 -1.18449,-0.238087 z m 7.14263,-0.06547 q 0.0179,-0.04167 0.0298,-0.05357 0.0179,-0.0119 0.0476,-0.0119 h 0.0476 q 0.0298,0 0.0357,0.01786 0.006,0.0119 -0.0119,0.04762 l -1.78566,3.999871 q -0.0417,0.08928 -0.0655,0.119044 -0.0238,0.03571 -0.0536,0.03571 -0.0298,0 -0.0536,-0.03571 -0.0238,-0.02976 -0.0655,-0.119044 l -1.78565,-3.999871 q -0.0119,-0.03571 -0.0119,-0.04167 0,-0.02381 0.0417,-0.02381 h 0.0417 q 0.0298,0 0.0417,0.0119 0.0179,0.0119 0.0357,0.05357 l 1.7559,3.952254 z m 0.40476,2.023744 q 0,-0.601171 0.26784,-1.089251 0.27381,-0.494031 0.74403,-0.773784 0.47617,-0.279753 1.05949,-0.279753 0.57736,0 1.04758,0.279753 0.47023,0.279753 0.73808,0.767832 0.2738,0.48808 0.2738,1.083299 0,0.601171 -0.2738,1.095203 -0.26785,0.488079 -0.74403,0.767832 -0.47022,0.279753 -1.05354,0.279753 -0.57736,0 -1.04758,-0.279753 -0.47022,-0.279753 -0.74403,-0.767832 -0.26784,-0.48808 -0.26784,-1.083299 z m 0.13094,-0.006 q 0,0.565458 0.25,1.023777 0.24999,0.458318 0.69045,0.720215 0.44641,0.261896 0.99402,0.261896 0.5476,0 0.98806,-0.261896 0.44641,-0.261897 0.69641,-0.720215 0.24999,-0.458319 0.24999,-1.023777 0,-0.565458 -0.24999,-1.023777 -0.25,-0.458318 -0.69641,-0.720215 -0.44046,-0.261896 -0.98806,-0.261896 -0.54761,0 -0.99402,0.261896 -0.44046,0.261897 -0.69045,0.720215 -0.25,0.458319 -0.25,1.023777 z"
             id="path4"
             aria-label="ADVO" />
          <path
             style="font-size:5.95219px;font-family:Posterama2001W04-Thin;-inkscape-font-specification:'Posterama2001W04-Thin, Normal';stroke:#b07e3b"
             d="m 191.75239,25.369151 q 0.41665,0 0.77974,-0.142853 0.36903,-0.148804 0.65474,-0.392844 0.0357,-0.02976 0.0536,-0.02976 0.0178,-0.006 0.0417,0.02381 l 0.0179,0.02381 q 0.0119,0.0119 0.0119,0.03571 0,0.02381 -0.0298,0.04762 -0.6845,0.565458 -1.53566,0.565458 -0.55356,0 -1.02378,-0.273801 -0.47022,-0.2738 -0.74997,-0.755928 -0.2738,-0.488079 -0.2738,-1.101155 0,-0.613075 0.2738,-1.101155 0.2738,-0.48808 0.74402,-0.76188 0.47022,-0.279753 1.04163,-0.279753 0.44642,0 0.82736,0.154757 0.38094,0.148804 0.6845,0.404749 0.0298,0.02976 0.0357,0.04762 0.006,0.01786 -0.0119,0.04167 l -0.0179,0.02381 q -0.0238,0.02381 -0.0357,0.02381 -0.0179,0 -0.0357,-0.0119 -0.0119,-0.0119 -0.0179,-0.01786 -0.29166,-0.255944 -0.66069,-0.392845 -0.36309,-0.142852 -0.77379,-0.142852 -0.52974,0 -0.97021,0.261896 -0.44046,0.261897 -0.6964,0.720215 -0.25595,0.458319 -0.25595,1.029729 0,0.553554 0.25,1.011872 0.25594,0.458319 0.6964,0.726168 0.44046,0.261896 0.97616,0.261896 z m 2.11303,0.0119 q -0.0179,0.04167 -0.0357,0.05357 -0.0119,0.0119 -0.0417,0.0119 h -0.0476 q -0.0298,0 -0.0357,-0.0119 -0.006,-0.01786 0.0119,-0.05357 l 1.78566,-3.999871 q 0.0417,-0.08928 0.0655,-0.119044 0.0238,-0.03571 0.0536,-0.03571 0.0298,0 0.0536,0.03571 0.0238,0.02976 0.0655,0.119044 l 1.78566,3.999871 q 0.0119,0.03571 0.0119,0.04167 0,0.02381 -0.0417,0.02381 h -0.0417 q -0.0298,0 -0.0476,-0.0119 -0.0119,-0.0119 -0.0298,-0.05357 l -1.7559,-3.952254 z m 5.94029,-0.0119 q 0.41665,0 0.77973,-0.142853 0.36904,-0.148804 0.65475,-0.392844 0.0357,-0.02976 0.0536,-0.02976 0.0179,-0.006 0.0417,0.02381 l 0.0179,0.02381 q 0.0119,0.0119 0.0119,0.03571 0,0.02381 -0.0298,0.04762 -0.6845,0.565458 -1.53566,0.565458 -0.55356,0 -1.02378,-0.273801 -0.47022,-0.2738 -0.74998,-0.755928 -0.2738,-0.488079 -0.2738,-1.101155 0,-0.613075 0.2738,-1.101155 0.2738,-0.48808 0.74403,-0.76188 0.47022,-0.279753 1.04163,-0.279753 0.44641,0 0.82735,0.154757 0.38094,0.148804 0.68451,0.404749 0.0298,0.02976 0.0357,0.04762 0.006,0.01786 -0.0119,0.04167 l -0.0179,0.02381 q -0.0238,0.02381 -0.0357,0.02381 -0.0179,0 -0.0357,-0.0119 -0.0119,-0.0119 -0.0178,-0.01786 -0.29166,-0.255944 -0.6607,-0.392845 -0.36308,-0.142852 -0.77378,-0.142852 -0.52975,0 -0.97021,0.261896 -0.44046,0.261897 -0.69641,0.720215 -0.25594,0.458319 -0.25594,1.029729 0,0.553554 0.24999,1.011872 0.25595,0.458319 0.69641,0.726168 0.44046,0.261896 0.97616,0.261896 z m 2.46421,0.02976 q 0,0.02381 -0.0119,0.03571 -0.006,0.0119 -0.0357,0.0119 h -0.0357 q -0.0238,0 -0.0357,-0.0119 -0.0119,-0.0119 -0.0119,-0.03571 v -4.071298 q 0,-0.02976 0.0119,-0.03571 0.0119,-0.0119 0.0357,-0.0119 h 0.0357 q 0.0298,0 0.0357,0.0119 0.0119,0.006 0.0119,0.03571 z m 0.73211,-0.01786 q -0.0178,0.04167 -0.0357,0.05357 -0.0119,0.0119 -0.0417,0.0119 h -0.0476 q -0.0298,0 -0.0357,-0.0119 -0.006,-0.01786 0.0119,-0.05357 l 1.78566,-3.999871 q 0.0417,-0.08928 0.0655,-0.119044 0.0238,-0.03571 0.0536,-0.03571 0.0298,0 0.0536,0.03571 0.0238,0.02976 0.0655,0.119044 l 1.78566,3.999871 q 0.0119,0.03571 0.0119,0.04167 0,0.02381 -0.0417,0.02381 h -0.0417 q -0.0298,0 -0.0476,-0.0119 -0.0119,-0.0119 -0.0298,-0.05357 l -1.7559,-3.952254 z"
             id="path5"
             aria-label="CACIA" />
        </g>
      </g>
    </g>
  </g>
</svg>
